# xmcd
#
# Track frame offsets:
#	150
#	10540
#	18732
#	30798
#	45402
#	56433
#	68220
#	86115
#	100416
#	113412
#	124745
#	135130
#	147041
#	161892
#	174310
#	187347
#
# Disc length: 2647 seconds
#
# Revision: 3
# Processed by: cddbd v1.5.2PL0 Copyright (c) Steve Scherf et al.
# Submitted via: audiograbber 1.83.01
#
DISCID=c70a5510
DTITLE=Lucille Starr - The French Song
DYEAR=1964
DGENRE=Country
TTITLE0=Jolie Jacqueline
TTITLE1=I'll Go Steppin' Too
TTITLE2=Colinda
TTITLE3=The Best of the Blues
TTITLE4=Bonjour tristesse
TTITLE5=Are You Teasing Me
TTITLE6=Mississippi
TTITLE7=That's How Long I'll Love You
TTITLE8=The French Song
TTITLE9=Pick Me Up on Your Way Down
TTITLE10=Ecstasy
TTITLE11=Crazy Arms
TTITLE12=Hey Mister Wind
TTITLE13=I'm So Lonesome I Could Cry
TTITLE14=I'm Not the Woman I Want to Be
TTITLE15=I'll Be There
EXTD=Digitally re-recorded tracks
EXTT0=
EXTT1=
EXTT2=
EXTT3=
EXTT4=
EXTT5=
EXTT6=
EXTT7=
EXTT8=
EXTT9=
EXTT10=
EXTT11=
EXTT12=
EXTT13=
EXTT14=
EXTT15=
PLAYORDER=
